<?xml version="1.0" encoding="UTF-8"?>
<svg width="1516.3" height="609.75" enable-background="new 0 0 1024 1024" version="1.1" viewBox="0 0 1516.3 609.75" xml:space="preserve" xmlns="http://www.w3.org/2000/svg"><g>
<path d="m1151.8 375.14c-9.7178-1.553-19.136-2.6098-28.457-4.2284-43.923-7.6276-86.537-19.096-124.43-43.819-18.996-12.393-33.371-28.521-39.62-50.878-3.2965-11.793-2.6743-23.717-0.97545-35.676 8.0719-56.821 35.131-104.06 73.007-146.05 37.908-42.029 84.401-69.812 138.62-85.095 30.302-8.5412 61.217-11.47 92.465-7.9057 66.626 7.5994 123.63 35.285 170.65 83.287 27.929 28.511 50.341 60.734 66.03 97.511 9.6819 22.696 15.911 46.379 17.064 70.991 1.2866 27.464-10.88 49.305-31.798 66.341-23.54 19.171-51.069 30.382-79.882 38.89-26.261 7.7545-52.999 12.965-80.265 15.418-3.3635 0.30261-4.6891 1.7763-4.6832 5.0584 0.042 23.166 0.046 46.333-0.019 69.499-0.01 3.0182 1.2306 4.1813 4.1711 4.1515 12.332-0.12482 24.665-0.25421 36.997-0.17298 3.4864 0.023 4.8773-2.1334 6.5052-4.5407 10.072-14.893 28.337-20.017 44.017-12.433 12.478 6.0352 20.699 20.459 19.106 33.52-1.7789 14.582-12.282 26.68-25.865 29.795-15.16 3.4766-29.264-1.8734-37.074-15.03-2.8318-4.7701-5.9004-6.1652-11.136-5.9592-10.484 0.41254-20.997 0.2666-31.494 0.0903-3.8722-0.0649-5.375 1.2116-5.259 5.178 0.224 7.6601 0.2197 15.336 0 22.996-0.1053 3.7374 0.8897 5.1208 4.9628 5.4136 27.137 1.9508 46.566 15.517 58.199 40.014 4.1359 8.7098 5.3935 18.171 4.8101 27.772-0.2454 4.0409 1.2531 5.2073 5.1441 5.1237 9.8286-0.2113 19.666-0.15112 29.498-0.0219 4.9818 0.0654 9.1859 2.0267 11.418 6.7232 2.1527 4.5291 1.6908 9.0347-1.0621 13.291-2.2373 3.4592-5.5909 4.5409-9.4461 4.561-9.4997 0.0498-19 0.0904-28.5 0.0902-112.83-3e-3 -225.67-0.0129-338.5-0.0225-1.4999-1.2e-4 -3.0002 2e-3 -4.4998-0.0274-7.6103-0.14789-12.326-4.6396-12.526-11.919-0.1868-6.8018 4.9447-12.432 12.13-12.634 9.6594-0.27215 19.331-0.1048 28.998-0.13391 6.5681-0.0198 7.1647-0.2124 6.6374-6.7269-2.5045-30.937 23.09-57.968 48.612-64.048 4.3505-1.0364 8.8445-1.6146 13.307-1.9862 3.0644-0.25519 4.5526-1.2762 4.5122-4.5085-0.1044-8.3317-0.1-16.666-0.033-24.998 0.024-2.967-1.1878-4.1434-4.1861-4.1153-12.166 0.11432-24.333 0.16687-36.499 0.0522-3.3158-0.0312-4.519 1.9824-5.9726 4.3539-7.6597 12.498-18.949 18.783-33.522 17.395-14.004-1.3337-24.18-9.1971-28.542-22.523-8.1953-25.039 11.555-44.844 30.837-44.996 13.572-0.10675 23.795 5.22 31.126 16.408 1.5549 2.373 3.1605 3.9768 6.3305 3.9445 11.831-0.12066 23.666-0.0665 35.498 0.0538 3.5465 0.036 5.1004-1.2263 5.0761-4.9568-0.1489-22.832-0.1499-45.665-0.2133-68.498 0-1.3224 0.049-2.687-1.2768-4.0187m26.679-23.995c0 51.48 0.055 102.96-0.094 154.44-0.013 4.6138 1.3684 6.07 5.9418 5.9655 11.489-0.26245 22.991-0.19312 34.484-0.0156 3.9048 0.0604 5.3108-1.3277 5.2184-5.2317-0.2088-8.8251-0.2226-17.661-0.049-26.487 0.1146-5.8424 2.1213-10.887 8.0826-13.171 8.7164-3.3406 17.084 2.7046 17.361 12.707 0.2483 8.9899 0.2433 17.996-0.01 26.986-0.1118 4.0358 1.3948 5.2036 5.2256 5.1456 11.492-0.17376 22.992-0.25586 34.481 0.0111 4.7826 0.11115 5.823-1.8099 5.8165-6.2045-0.1063-71.972-0.1322-143.95 0.054-215.92 0.013-5.1157-1.9646-7.1254-6.4491-8.2238-10.037-2.4583-20.177-4.2188-30.429-5.4929-8.6561-1.0757-8.657-1.2486-8.6567 7.5198 0 51.813 0.017 103.63 0.021 155.44 2e-4 1.8315 0.1028 3.6829-0.1191 5.4911-0.8576 6.9889-6.3216 11.805-13.252 11.811-6.1881 6e-3 -10.925-4.3349-11.964-11.206-0.346-2.2892-0.2901-4.6509-0.2888-6.9794 0.028-51.48 0.081-102.96 0.1098-154.44 0-7.339-1.3448-8.9164-7.7695-8.1771-10.571 1.2165-21.084 2.7562-31.44 5.4232-4.6886 1.2075-6.4454 3.1085-6.3757 8.1301 0.2843 20.488 0.1055 40.983 0.098 62.475m-75.916-226.53c-20.074 12.713-41.304 14.858-63.569 6.7835-2.7907-1.012-4.6927-1.3034-6.8362 1.4535-19.874 25.56-34.287 53.878-43.263 84.96-0.60928 2.11-1.9771 4.292-0.91009 6.7006 1.8746 0.63101 3.3232-0.42673 4.7894-1.0466 23.555-9.9587 48.135-16.393 73.067-21.795 29.966-6.4935 60.329-10.128 90.767-13.198 20.708-2.0885 41.52-2.7746 62.33-3.0692 3.6173-0.0512 5.0977-1.2912 5.0142-4.9868-0.173-7.6615-0.2245-15.334 0.01-22.993 0.1084-3.6199-1.0559-5.4108-4.6843-6.2354-8.562-1.9458-16.21-5.8766-23.185-11.256-28.877-22.268-30.723-63.486-3.9835-88.265 7.7623-7.1933 16.677-12.013 26.888-14.668 4.5063-1.1714 5.9054-4.11 4.7315-9.2644-0.9991-4.3869-4.3173-2.6142-6.8566-2.2489-7.2397 1.0416-14.475 2.15-21.667 3.4791-21.23 3.9235-41.612 10.435-60.95 20.135-3.5498 1.7805-5.2469 3.6054-4.0741 8.116 2.1507 8.2721 2.317 16.878 0.782 25.279-3.2547 17.814-13.266 31.312-28.394 42.118m155.32 25.425c-9.0887 2.8919-8.4432 0.69208-8.4507 11.405 0 6.3299 0.1944 12.665 0 18.988-0.1094 3.6216 1.0776 4.9753 4.8371 5.0049 13.648 0.10743 27.272 0.90897 40.901 1.713 28.406 1.6757 56.681 4.6085 84.721 9.3094 34.823 5.838 69.321 13.135 101.84 27.62 1.0683 0.47592 2.3122 1.5571 3.818 0.22043-0.2254-1.3877-0.3387-2.8786-0.7173-4.2987-8.5307-31.999-23.445-60.753-43.921-86.722-2.3461-2.9755-4.5193-2.9169-7.7067-1.7834-20.953 7.4513-41.363 6.4191-60.446-5.4529-24.966-15.532-35.588-39.568-31.169-66.687 1.3931-8.5489 1.7539-8.4939-6.1964-12.338-0.8985-0.43445-1.8357-0.78845-2.7436-1.2044-24.134-11.055-49.507-17.413-75.848-20.257-6.9423-0.74948-7.5113-0.44046-7.3 6.4564 0.076 2.4843 0.6146 4.0435 3.4254 4.5154 2.4363 0.40903 4.7854 1.3935 7.1417 2.2138 27.721 9.6504 44.938 39.263 38.211 67.601-5.0864 21.428-18.933 35.822-40.397 43.695m-79.434 424.06c0 1.3329 0.1837 2.6923-0.015 3.994-0.8003 5.2354 1.5953 6.3585 6.4996 6.3307 34.653-0.19671 69.307-0.17724 103.96-0.0221 4.547 0.0203 6.1725-1.2844 6.0597-5.9525-0.2777-11.489-0.082-22.989-0.094-34.485-0.01-7.2932-0.7441-7.9351-7.8717-7.8646-19.29 0.19098-38.581 0.3891-57.872 0.42749-14.824 0.0295-29.649-0.10119-44.471-0.32843-4.6386-0.071-6.441 1.5556-6.2807 6.429 0.3338 10.152 0.09 20.322 0.085 31.472m94.473-473.27c0.7354-3.4308 1.2254-6.8471 0.6207-10.389-3.9732-23.276-27.578-37.106-49.856-29.164-17.044 6.0761-27.38 23.452-23.599 39.673 3.7769 16.204 17.806 27.023 35.832 27.634 17.439 0.59076 31.787-9.8852 37.002-27.754m46.604 461.32c0.01 5.998 0.06 11.997 0 17.994-0.026 2.504 0.4923 4.194 3.5204 4.179 11.996-0.0594 23.992-0.0362 35.988-8e-3 2.4302 6e-3 3.5208-1.0244 3.8319-3.5178 2.652-21.252-17.692-44.251-39.041-44.176-3.3574 0.0118-4.3511 1.4509-4.3047 4.5359 0.1001 6.6628 0.016 13.328 0.01 20.993m-206.14 22.013c11.654 0.052 23.31 2e-3 34.961 0.2149 3.7718 0.069 4.9133-1.4291 4.8738-5.0195-0.1373-12.487-0.1621-24.977 0-37.464 0.057-4.2847-1.6682-5.6686-5.7242-5.072-15.338 2.2564-26.527 10.257-32.977 24.341-3.2931 7.1906-4.412 14.849-1.1364 22.999m336.63-298.1c-30.353 3.7551-60.71 7.4785-91.144 10.653 16.042 1.3626 32.074 2.4294 48.096 3.6242 14.252 1.0627 28.528 1.9478 42.724 3.5393 7.4913 0.8399 14.111 0.59857 19.792-5.1243 4.948-4.9849 10.601-9.3177 14.442-16.507-11.608 1.3215-22.306 2.5395-33.909 3.8143m-397.44 15.267c18.966-1.4087 37.932-2.8174 56.898-4.2261-19.872-3.0546-39.677-5.3146-59.478-7.6155-19.89-2.3114-39.776-4.6634-60.666-7.1153 6.3179 9.7835 14.127 16.315 23.159 21.455 1.3025 0.74124 3.261 0.59631 4.8839 0.46512 11.429-0.92358 22.85-1.951 35.202-2.9635m240.28-50.583c-1.0836 1.6044-2.8087 2.8734-2.7406 5.2172 5.1036 2.8505 9.6855 2.6584 14.718-0.80047 16.442-11.301 33.22-22.102 50.362-32.326 2.044-1.219 3.9169-2.7248 6.86-4.7946-12.67-2.0896-24.056-3.0643-35.428-4.2046-3.7887-0.37992-6.1886 1.0015-8.4077 3.9431-8.2077 10.88-16.606 21.617-25.364 32.965m-137.77-32.459c-2.3069-3.7266-5.2539-5.4531-9.953-4.5398-4.7005 0.9136-9.6249 0.63089-14.362 1.4138-6.0736 1.0038-12.372 0.9461-19.07 3.2024 1.7695 1.2796 2.7608 2.118 3.8608 2.7739 18.289 10.904 36.216 22.381 53.575 34.702 4.7811 3.3934 8.763 2.8125 13.817-0.24924-8.3948-12.999-18.434-24.498-27.868-37.303m272.54 48.046c21.095-2.7364 42.189-5.4728 63.284-8.2091-7.8287-6.4894-16.31-10.541-25.168-13.934-2.1949-0.84073-3.9716-0.84147-6.1696-0.11698-15.331 5.0531-30.717 9.9367-46.076 14.906-14.101 4.5622-28.19 9.1632-42.284 13.747 0.06 0.20594 0.1198 0.4119 0.1797 0.61783 18.447-2.3218 36.894-4.6436 56.234-7.0109m-240.93-46.646c6.4071 8.5143 13.128 16.816 19.102 25.624 3.5012 5.1624 7.2747 6.8223 13.366 5.4954 3.7981-0.82733 4.9108-2.2692 4.8437-5.8945-0.1847-9.9904-0.2571-19.989-0.042-29.978 0.092-4.2722-1.6708-5.487-5.6203-5.3792-10.488 0.28613-20.983 0.31607-31.475 0.50735-1.9291 0.0352-3.9687-0.0298-5.5787 1.599 0.9689 3.0202 3.3191 5.0128 5.404 8.026m62.827 27.856c2.4516 4.4121 12.02 5.3226 15.098 1.2236 8.1758-10.888 16.197-21.892 24.23-32.886 0.8405-1.1505 1.8887-2.3911 1.1624-4.2097-2.4583-1.4431-5.2754-1.5618-8.0749-1.6215-8.6344-0.18406-17.27-0.33689-25.905-0.44727-5.7443-0.0735-6.4977 0.6611-6.5316 6.6644-0.057 10.131-0.012 20.263 0.021 31.276m-215.14 17.092 60.212 7.7615c-21.905-8.4013-43.998-15.641-66.094-22.869-21.439-7.0129-21.454-7.0324-41.337 3.8858-1.7643 0.96887-4.2213 1.3236-4.9459 4.5507 17.184 2.1879 34.23 4.3585 52.165 6.671m331.85-192.49c0.2838 29.04 34.742 46.06 55.176 36.623-16.364-17.091-34.493-31.508-53.842-44.984-1.5403 3.141-1.2298 5.3325-1.3335 8.3608m-305.87 28.173c-2.6635 2.872-5.327 5.7439-7.9466 8.5687 10.069 6.0958 29.108 2.3196 40.663-8.2333 11.095-10.132 16.36-25.667 11.624-35.137-16.069 9.6266-30.161 21.696-44.34 34.801m41.436 140.29c-4.7839-3.0044-9.9003-5.5938-14.281-9.1019-8.4316-6.7525-17.303-8.0712-27.225-4.0405-3.841 1.5603-8.2915 1.4343-12.77 4.2783 26.49 8.3569 51.843 17.278 78.09 23.695-7.7266-4.8228-15.453-9.6456-23.815-14.83m309.51-4.4333c4.3287-1.6833 9.0884-2.2482 13.828-5.0052-8.6547-2.7772-16.747-4.5349-24.852-6.246-2.1372-0.4512-3.8502 0.50098-5.596 1.5455-15.25 9.1247-30.527 18.205-45.76 27.359-0.8152 0.4899-2.2403 0.6991-2.0635 2.6187 21.589-5.8675 42.445-13.563 64.444-20.272m-83.616 96.69c-2.384-0.52896-4.6227-1.8425-7.8189-1.3674-0.4928 5.3962-0.6103 10.771 0.3176 16.174 0.4273 2.4885 1.9773 2.5996 4.0606 2.3124 7.2435-0.99857 14.549-1.6149 21.746-2.8635 5.8255-1.0106 11.92-0.94867 18.313-3.5354-12.555-3.7088-24.189-7.1455-36.618-10.72m-176.94-1.7873c-13.962 4.0514-27.923 8.1027-41.885 12.154 13.495 3.4835 26.995 4.8869 40.487 6.3318 1.3366 0.14313 3.1861-0.0313 3.2626-1.5677 0.2801-5.6298 2.0219-11.405-1.8648-16.918m251.67 142.44c3.9279-4.6907 4.5369-8.703 1.9019-12.529-2.5165-3.6538-7.8583-5.3146-11.957-3.7174-3.9295 1.5314-6.4337 6.0854-5.7844 10.519 0.9677 6.607 7.8816 9.4171 15.839 5.7276m-316.07-7.2242c-0.3342-1.2787-0.4463-2.6732-1.0424-3.8151-2.1257-4.0714-5.524-6.0753-10.178-5.5865-4.5922 0.48242-7.0471 3.4172-8.0958 7.6129-1.0986 4.3955 1.3289 7.309 4.6758 9.5388 5.8314 3.8853 12.075 0.84125 14.64-7.7501m291.08-146.27c-4.2873-0.32056-8.5746-0.64112-12.862-0.96167 12.805 3.6858 25.797 6.5541 38.393 10.643 8.6103 2.7949 14.791-1.618 21.8-4.0339-0.029-0.42401-0.057-0.84805-0.086-1.2721-15.443-1.4434-30.885-2.8868-47.245-4.375m-305.81 9.3119c12.164-3.2972 24.328-6.5943 36.493-9.8914-20.59 2.2967-41.305 2.978-63.303 5.0138 4.6327 1.5929 7.9134 2.7548 11.217 3.8487 4.8386 1.6022 9.6166 4.0508 15.594 1.029z"/>















<path d="m1468.4 597.53c-1.7163 7.8524-5.5928 11.594-12.204 12.175-5.092 0.448-9.9839-2.4796-12.019-7.1926-2.8959-6.707 0.2268-14.268 6.9511-16.831 7.1323-2.7184 14.443 0.7738 16.692 8.0244 0.3392 1.0938 0.4035 2.2729 0.5798 3.8243z"/>
<path d="m1026.1 606.61c-7.0275 4.1843-13.846 3.4317-17.738-1.681-3.8405-5.0438-3.2374-12.677 1.3292-16.824 4.9341-4.4806 13.076-4.24 17.625 0.52106 4.8172 5.0408 4.4592 11.925-1.2161 17.984z"/>

</g><text x="933.62115" y="393.1618" fill="#333333" font-family="Corbel" font-weight="bold" letter-spacing="-20px" stroke-linecap="round" stroke-width="3.7795" text-anchor="end" word-spacing="0px" style="line-height:0" xml:space="preserve"><tspan x="933.62115" y="393.1618" font-size="266.67px" text-align="end" style="font-variant-caps:normal;font-variant-east-asian:normal;font-variant-ligatures:normal;font-variant-numeric:normal;line-height:0.8"><tspan font-family="Corbel" font-size="266.67px" font-weight="bold" letter-spacing="-30px" text-align="end" text-anchor="end" word-spacing="0px" style="font-variant-caps:normal;font-variant-east-asian:normal;font-variant-ligatures:normal;font-variant-numeric:normal">SU</tspan>CCESS</tspan><tspan x="933.62115" y="606.49542" font-size="266.67px" text-align="end" style="font-variant-caps:normal;font-variant-east-asian:normal;font-variant-ligatures:normal;font-variant-numeric:normal;line-height:0.8"><tspan font-family="Corbel" font-size="266.67px" font-weight="bold" letter-spacing="-25.01px" style="font-variant-caps:normal;font-variant-east-asian:normal;font-variant-ligatures:normal;font-variant-numeric:normal">BL</tspan>ESS</tspan><tspan x="933.62115" y="659.27411" font-size="333.33px" text-align="end" style="font-variant-caps:normal;font-variant-east-asian:normal;font-variant-ligatures:normal;font-variant-numeric:normal;line-height:0.8"/></text></svg>
