<?xml version="1.0" encoding="UTF-8" standalone="no"?>
<svg
   width="1516.3002"
   height="610.04999"
   enable-background="new 0 0 1024 1024"
   version="1.1"
   viewBox="0 0 1516.3001 610.04999"
   xml:space="preserve"
   id="svg7"
   sodipodi:docname="SuccessBlessIconAndString.svg"
   xmlns:inkscape="http://www.inkscape.org/namespaces/inkscape"
   xmlns:sodipodi="http://sodipodi.sourceforge.net/DTD/sodipodi-0.dtd"
   xmlns="http://www.w3.org/2000/svg"
   xmlns:svg="http://www.w3.org/2000/svg"
   xmlns:rdf="http://www.w3.org/1999/02/22-rdf-syntax-ns#"
   xmlns:cc="http://creativecommons.org/ns#"><sodipodi:namedview
     id="namedview1"
     pagecolor="#ffffff"
     bordercolor="#000000"
     borderopacity="0.25"
     inkscape:showpageshadow="2"
     inkscape:pageopacity="0.0"
     inkscape:pagecheckerboard="0"
     inkscape:deskcolor="#d1d1d1" /><defs
     id="defs7" /><g
     transform="translate(0.01230612,-0.00173106)"
     id="g3">
<path
   d="m 1151.8,375.14 c -9.7178,-1.553 -19.136,-2.6098 -28.457,-4.2284 -43.923,-7.6276 -86.537,-19.096 -124.43,-43.819 -18.996,-12.393 -33.371,-28.521 -39.62,-50.878 -3.2965,-11.793 -2.6743,-23.717 -0.97545,-35.676 8.0719,-56.821 35.131,-104.06 73.00695,-146.05 37.908,-42.029 84.401,-69.812 138.62,-85.095 30.302,-8.5412 61.217,-11.47 92.465,-7.9057 66.626,7.5994 123.63,35.285 170.65,83.287 27.929,28.511 50.341,60.734 66.03,97.511 9.6819,22.696 15.911,46.379 17.064,70.991 1.2866,27.464 -10.88,49.305 -31.798,66.341 -23.54,19.171 -51.069,30.382 -79.882,38.89 -26.261,7.7545 -52.999,12.965 -80.265,15.418 -3.3635,0.30261 -4.6891,1.7763 -4.6832,5.0584 0.042,23.166 0.046,46.333 -0.019,69.499 -0.01,3.0182 1.2306,4.1813 4.1711,4.1515 12.332,-0.12482 24.665,-0.25421 36.997,-0.17298 3.4864,0.023 4.8773,-2.1334 6.5052,-4.5407 10.072,-14.893 28.337,-20.017 44.017,-12.433 12.4781,6.0352 20.6991,20.459 19.106,33.52 -1.7789,14.582 -12.2819,26.68 -25.865,29.795 -15.16,3.4766 -29.2639,-1.8734 -37.074,-15.03 -2.8318,-4.7701 -5.9004,-6.1652 -11.136,-5.9592 -10.484,0.41254 -20.997,0.2666 -31.494,0.0903 -3.8722,-0.0649 -5.375,1.2116 -5.259,5.178 0.224,7.6601 0.2199,15.336 0,22.996 -0.1051,3.7374 0.8897,5.1208 4.9629,5.4136 27.137,1.9508 46.5661,15.517 58.1991,40.014 4.1359,8.7098 5.3933,18.171 4.8099,27.772 -0.2454,4.0409 1.2531,5.2073 5.1441,5.1237 9.8287,-0.2113 19.666,-0.15112 29.4981,-0.0219 4.9818,0.0654 9.1857,2.0267 11.4179,6.7232 2.1528,4.5291 1.6908,9.0347 -1.0621,13.291 -2.2373,3.4592 -5.5909,4.5409 -9.4461,4.561 -9.4997,0.0498 -19,0.0904 -28.5,0.0902 -112.83,-0.003 -225.67,-0.0129 -338.5,-0.0225 -1.4999,-1.2e-4 -3.0002,0.002 -4.4998,-0.0274 -7.6103,-0.14789 -12.326,-4.6396 -12.526,-11.919 -0.1868,-6.8018 4.9447,-12.432 12.13,-12.634 9.6594,-0.27215 19.331,-0.1048 28.998,-0.13391 6.5681,-0.0198 7.1647,-0.2124 6.6376,-6.7269 -2.5046,-30.937 23.0899,-57.968 48.612,-64.048 4.3505,-1.0364 8.8445,-1.6146 13.307,-1.9862 3.0644,-0.25519 4.5526,-1.2762 4.5121,-4.5085 -0.1043,-8.3317 -0.1,-16.666 -0.033,-24.998 0.024,-2.967 -1.1878,-4.1434 -4.1861,-4.1153 -12.166,0.11432 -24.333,0.16687 -36.499,0.0522 -3.3158,-0.0312 -4.519,1.9824 -5.9726,4.3539 -7.6597,12.498 -18.949,18.783 -33.522,17.395 -14.004,-1.3337 -24.18,-9.1971 -28.542,-22.523 -8.1953,-25.039 11.555,-44.844 30.837,-44.996 13.572,-0.10675 23.795,5.22 31.126,16.408 1.5549,2.373 3.1605,3.9768 6.3305,3.9445 11.831,-0.12066 23.666,-0.0665 35.498,0.0538 3.5465,0.036 5.1004,-1.2263 5.0761,-4.9568 -0.1489,-22.832 -0.1499,-45.665 -0.2133,-68.498 0,-1.3224 0.049,-2.687 -1.2768,-4.0187 m 26.679,-23.995 c 0,51.48 0.055,102.96 -0.094,154.44 -0.013,4.6138 1.3684,6.07 5.9418,5.9655 11.489,-0.26245 22.991,-0.19312 34.484,-0.0156 3.9048,0.0604 5.3108,-1.3277 5.2184,-5.2317 -0.2088,-8.8251 -0.2226,-17.661 -0.049,-26.487 0.1146,-5.8424 2.1213,-10.887 8.0826,-13.171 8.7164,-3.3406 17.084,2.7046 17.361,12.707 0.2483,8.9899 0.2433,17.996 -0.01,26.986 -0.1118,4.0358 1.3948,5.2036 5.2256,5.1456 11.492,-0.17376 22.992,-0.25586 34.481,0.0111 4.7826,0.11115 5.823,-1.8099 5.8165,-6.2045 -0.1063,-71.972 -0.1322,-143.95 0.054,-215.92 0.013,-5.1157 -1.9646,-7.1254 -6.4491,-8.2238 -10.037,-2.4583 -20.177,-4.2188 -30.429,-5.4929 -8.6561,-1.0757 -8.657,-1.2486 -8.6567,7.5198 0,51.813 0.017,103.63 0.021,155.44 2e-4,1.8315 0.1028,3.6829 -0.1191,5.4911 -0.8576,6.9889 -6.3216,11.805 -13.252,11.811 -6.1881,0.006 -10.925,-4.3349 -11.964,-11.206 -0.346,-2.2892 -0.2901,-4.6509 -0.2888,-6.9794 0.028,-51.48 0.081,-102.96 0.1098,-154.44 0,-7.339 -1.3448,-8.9164 -7.7695,-8.1771 -10.571,1.2165 -21.084,2.7562 -31.44,5.4232 -4.6886,1.2075 -6.4454,3.1085 -6.3757,8.1301 0.2843,20.488 0.1055,40.983 0.098,62.475 m -75.916,-226.53 c -20.074,12.713 -41.304,14.858 -63.569,6.7835 -2.7907,-1.012 -4.6927,-1.3034 -6.8362,1.4535 -19.874,25.56 -34.28705,53.878 -43.26305,84.96 -0.60928,2.11 -1.9771,4.292 -0.91009,6.7006 1.8746,0.63101 3.3232,-0.42673 4.7894,-1.0466 23.55504,-9.9587 48.13504,-16.393 73.06704,-21.795 29.966,-6.4935 60.329,-10.128 90.767,-13.198 20.708,-2.0885 41.52,-2.7746 62.33,-3.0692 3.6173,-0.0512 5.0977,-1.2912 5.0142,-4.9868 -0.173,-7.6615 -0.2245,-15.334 0.01,-22.993 0.1084,-3.6199 -1.0559,-5.4108 -4.6843,-6.2354 -8.562,-1.9458 -16.21,-5.8766 -23.185,-11.256 -28.877,-22.268 -30.723,-63.486 -3.9835,-88.265 7.7623,-7.1933 16.677,-12.013 26.888,-14.668 4.5063,-1.1714 5.9054,-4.11 4.7315,-9.2644 -0.9991,-4.3869 -4.3173,-2.6142 -6.8566,-2.2489 -7.2397,1.0416 -14.475,2.15 -21.667,3.4791 -21.23,3.9235 -41.612,10.435 -60.95,20.135 -3.5498,1.7805 -5.2469,3.6054 -4.0741,8.116 2.1507,8.2721 2.317,16.878 0.782,25.279 -3.2547,17.814 -13.266,31.312 -28.394,42.118 m 155.32,25.425 c -9.0887,2.8919 -8.4432,0.69208 -8.4507,11.405 0,6.3299 0.1944,12.665 0,18.988 -0.1094,3.6216 1.0776,4.9753 4.8371,5.0049 13.648,0.10743 27.272,0.90897 40.901,1.713 28.406,1.6757 56.681,4.6085 84.721,9.3094 34.823,5.838 69.321,13.135 101.84,27.62 1.0683,0.47592 2.3122,1.5571 3.818,0.22043 -0.2254,-1.3877 -0.3387,-2.8786 -0.7173,-4.2987 -8.5307,-31.999 -23.445,-60.753 -43.921,-86.722 -2.3461,-2.9755 -4.5193,-2.9169 -7.7067,-1.7834 -20.953,7.4513 -41.363,6.4191 -60.446,-5.4529 -24.966,-15.532 -35.588,-39.568 -31.169,-66.687 1.3931,-8.5489 1.7539,-8.4939 -6.1964,-12.338 -0.8985,-0.43445 -1.8357,-0.78845 -2.7436,-1.2044 -24.134,-11.055 -49.507,-17.413 -75.848,-20.257 -6.9423,-0.74948 -7.5113,-0.44046 -7.3,6.4564 0.076,2.4843 0.6146,4.0435 3.4254,4.5154 2.4363,0.40903 4.7854,1.3935 7.1417,2.2138 27.721,9.6504 44.938,39.263 38.211,67.601 -5.0864,21.428 -18.933,35.822 -40.397,43.695 m -79.434,424.06 c 0,1.3329 0.1837,2.6923 -0.015,3.994 -0.8003,5.2354 1.5953,6.3585 6.4996,6.3307 34.653,-0.19671 69.307,-0.17724 103.96,-0.0221 4.547,0.0203 6.1725,-1.2844 6.0597,-5.9525 -0.2777,-11.489 -0.082,-22.989 -0.094,-34.485 -0.01,-7.2932 -0.7441,-7.9351 -7.8717,-7.8646 -19.29,0.19098 -38.581,0.3891 -57.872,0.42749 -14.824,0.0295 -29.649,-0.10119 -44.471,-0.32843 -4.6386,-0.071 -6.441,1.5556 -6.2807,6.429 0.3338,10.152 0.09,20.322 0.085,31.472 m 94.473,-473.27 c 0.7354,-3.4308 1.2254,-6.8471 0.6207,-10.389 -3.9732,-23.276 -27.578,-37.106 -49.856,-29.164 -17.044,6.0761 -27.38,23.452 -23.599,39.673 3.7769,16.204 17.806,27.023 35.832,27.634 17.439,0.59076 31.787,-9.8852 37.002,-27.754 m 46.604,461.32 c 0.01,5.998 0.06,11.997 0,17.994 -0.026,2.504 0.4923,4.194 3.5204,4.179 11.996,-0.0594 23.992,-0.0362 35.988,-0.008 2.4302,0.006 3.5208,-1.0244 3.8319,-3.5178 2.652,-21.252 -17.692,-44.251 -39.041,-44.176 -3.3574,0.0118 -4.3511,1.4509 -4.3047,4.5359 0.1001,6.6628 0.016,13.328 0.01,20.993 m -206.14,22.013 c 11.654,0.052 23.31,0.002 34.961,0.2149 3.7718,0.069 4.9133,-1.4291 4.8738,-5.0195 -0.1373,-12.487 -0.1621,-24.977 0,-37.464 0.057,-4.2847 -1.6682,-5.6686 -5.7242,-5.072 -15.338,2.2564 -26.527,10.257 -32.977,24.341 -3.2931,7.1906 -4.412,14.849 -1.1364,22.999 m 336.63,-298.1 c -30.353,3.7551 -60.71,7.4785 -91.144,10.653 16.042,1.3626 32.074,2.4294 48.096,3.6242 14.252,1.0627 28.528,1.9478 42.724,3.5393 7.4913,0.8399 14.111,0.59857 19.792,-5.1243 4.948,-4.9849 10.601,-9.3177 14.442,-16.507 -11.608,1.3215 -22.306,2.5395 -33.909,3.8143 m -397.44,15.267 56.898,-4.2261 c -19.872,-3.0546 -39.677,-5.3146 -59.478,-7.6155 -19.89,-2.3114 -39.776,-4.6634 -60.66604,-7.1153 6.3179,9.7835 14.12704,16.315 23.15904,21.455 1.3025,0.74124 3.261,0.59631 4.8839,0.46512 11.429,-0.92358 22.85,-1.951 35.202,-2.9635 m 240.28,-50.583 c -1.0836,1.6044 -2.8087,2.8734 -2.7406,5.2172 5.1036,2.8505 9.6855,2.6584 14.718,-0.80047 16.442,-11.301 33.22,-22.102 50.362,-32.326 2.044,-1.219 3.9169,-2.7248 6.86,-4.7946 -12.67,-2.0896 -24.056,-3.0643 -35.428,-4.2046 -3.7887,-0.37992 -6.1886,1.0015 -8.4077,3.9431 -8.2077,10.88 -16.606,21.617 -25.364,32.965 m -137.77,-32.459 c -2.3069,-3.7266 -5.2539,-5.4531 -9.953,-4.5398 -4.7005,0.9136 -9.6249,0.63089 -14.362,1.4138 -6.0736,1.0038 -12.372,0.9461 -19.07,3.2024 1.7695,1.2796 2.7608,2.118 3.8608,2.7739 18.289,10.904 36.216,22.381 53.575,34.702 4.7811,3.3934 8.763,2.8125 13.817,-0.24924 -8.3948,-12.999 -18.434,-24.498 -27.868,-37.303 m 272.54,48.046 c 21.095,-2.7364 42.189,-5.4728 63.284,-8.2091 -7.8287,-6.4894 -16.31,-10.541 -25.168,-13.934 -2.1949,-0.84073 -3.9716,-0.84147 -6.1696,-0.11698 -15.331,5.0531 -30.717,9.9367 -46.076,14.906 -14.101,4.5622 -28.19,9.1632 -42.284,13.747 0.06,0.20594 0.1198,0.4119 0.1797,0.61783 18.447,-2.3218 36.894,-4.6436 56.234,-7.0109 m -240.93,-46.646 c 6.4071,8.5143 13.128,16.816 19.102,25.624 3.5012,5.1624 7.2747,6.8223 13.366,5.4954 3.7981,-0.82733 4.9108,-2.2692 4.8437,-5.8945 -0.1847,-9.9904 -0.2571,-19.989 -0.042,-29.978 0.092,-4.2722 -1.6708,-5.487 -5.6203,-5.3792 -10.488,0.28613 -20.983,0.31607 -31.475,0.50735 -1.9291,0.0352 -3.9687,-0.0298 -5.5787,1.599 0.9689,3.0202 3.3191,5.0128 5.404,8.026 m 62.827,27.856 c 2.4516,4.4121 12.02,5.3226 15.098,1.2236 8.1758,-10.888 16.197,-21.892 24.23,-32.886 0.8405,-1.1505 1.8887,-2.3911 1.1624,-4.2097 -2.4583,-1.4431 -5.2754,-1.5618 -8.0749,-1.6215 -8.6344,-0.18406 -17.27,-0.33689 -25.905,-0.44727 -5.7443,-0.0735 -6.4977,0.6611 -6.5316,6.6644 -0.057,10.131 -0.012,20.263 0.021,31.276 m -215.14,17.092 60.212,7.7615 c -21.905,-8.4013 -43.998,-15.641 -66.094,-22.869 -21.439,-7.0129 -21.454,-7.0324 -41.33704,3.8858 -1.7643,0.96887 -4.2213,1.3236 -4.9459,4.5507 17.184,2.1879 34.23004,4.3585 52.16504,6.671 m 331.85,-192.49 c 0.2838,29.04 34.742,46.06 55.176,36.623 -16.364,-17.091 -34.493,-31.508 -53.842,-44.984 -1.5403,3.141 -1.2298,5.3325 -1.3335,8.3608 m -305.87,28.173 c -2.6635,2.872 -5.327,5.7439 -7.9466,8.5687 10.069,6.0958 29.108,2.3196 40.663,-8.2333 11.095,-10.132 16.36,-25.667 11.624,-35.137 -16.069,9.6266 -30.161,21.696 -44.34,34.801 m 41.436,140.29 c -4.7839,-3.0044 -9.9003,-5.5938 -14.281,-9.1019 -8.4316,-6.7525 -17.303,-8.0712 -27.225,-4.0405 -3.841,1.5603 -8.2915,1.4343 -12.77,4.2783 26.49,8.3569 51.843,17.278 78.09,23.695 -7.7266,-4.8228 -15.453,-9.6456 -23.815,-14.83 m 309.51,-4.4333 c 4.3287,-1.6833 9.0884,-2.2482 13.828,-5.0052 -8.6547,-2.7772 -16.747,-4.5349 -24.852,-6.246 -2.1372,-0.4512 -3.8502,0.50098 -5.596,1.5455 -15.25,9.1247 -30.527,18.205 -45.76,27.359 -0.8152,0.4899 -2.2403,0.6991 -2.0635,2.6187 21.589,-5.8675 42.445,-13.563 64.444,-20.272 m -83.616,96.69 c -2.384,-0.52896 -4.6227,-1.8425 -7.8189,-1.3674 -0.4928,5.3962 -0.6103,10.771 0.3176,16.174 0.4273,2.4885 1.9773,2.5996 4.0606,2.3124 7.2435,-0.99857 14.549,-1.6149 21.746,-2.8635 5.8255,-1.0106 11.92,-0.94867 18.313,-3.5354 -12.555,-3.7088 -24.189,-7.1455 -36.618,-10.72 m -176.94,-1.7873 c -13.962,4.0514 -27.923,8.1027 -41.885,12.154 13.495,3.4835 26.995,4.8869 40.487,6.3318 1.3366,0.14313 3.1861,-0.0313 3.2626,-1.5677 0.2801,-5.6298 2.0219,-11.405 -1.8648,-16.918 m 251.67,142.44 c 3.9279,-4.6907 4.5369,-8.703 1.9019,-12.529 -2.5165,-3.6538 -7.8583,-5.3146 -11.957,-3.7174 -3.9295,1.5314 -6.4337,6.0854 -5.7844,10.519 0.9677,6.607 7.8816,9.4171 15.839,5.7276 m -316.07,-7.2242 c -0.3342,-1.2787 -0.4463,-2.6732 -1.0424,-3.8151 -2.1257,-4.0714 -5.524,-6.0753 -10.178,-5.5865 -4.5922,0.48242 -7.0471,3.4172 -8.0958,7.6129 -1.0986,4.3955 1.3289,7.309 4.6758,9.5388 5.8314,3.8853 12.075,0.84125 14.64,-7.7501 m 291.08,-146.27 c -4.2873,-0.32056 -8.5746,-0.64112 -12.862,-0.96167 12.805,3.6858 25.797,6.5541 38.393,10.643 8.6103,2.7949 14.791,-1.618 21.8,-4.0339 -0.029,-0.42401 -0.057,-0.84805 -0.086,-1.2721 -15.443,-1.4434 -30.885,-2.8868 -47.245,-4.375 m -305.81,9.3119 c 12.164,-3.2972 24.328,-6.5943 36.493,-9.8914 -20.59,2.2967 -41.305,2.978 -63.303,5.0138 4.6327,1.5929 7.9134,2.7548 11.217,3.8487 4.8386,1.6022 9.6166,4.0508 15.594,1.029 z"
   id="path1" />















<path
   d="m 1468.4,597.53 c -1.7163,7.8524 -5.5928,11.594 -12.204,12.175 -5.092,0.448 -9.9839,-2.4796 -12.019,-7.1926 -2.8959,-6.707 0.2268,-14.268 6.9511,-16.831 7.1323,-2.7184 14.443,0.7738 16.692,8.0244 0.3392,1.0938 0.4035,2.2729 0.5798,3.8243 z"
   id="path2" />
<path
   d="m 1026.1,606.61 c -7.0275,4.1843 -13.846,3.4317 -17.738,-1.681 -3.8405,-5.0438 -3.2374,-12.677 1.3292,-16.824 4.9341,-4.4806 13.076,-4.24 17.625,0.52106 4.8172,5.0408 4.4592,11.925 -1.2161,17.984 z"
   id="path3" />

</g><g
     id="text7"
     style="font-weight:bold;line-height:0;font-family:Corbel;letter-spacing:-20px;word-spacing:0px;text-anchor:end;fill:#333333;stroke-width:3.7795;stroke-linecap:round"
     aria-label="SUCCESSBLESS&#10;"><path
       style="font-size:266.67px;line-height:0.8;text-align:end;letter-spacing:-30px"
       d="m 91.147005,343.15944 q 0,-6.64071 -3.255249,-10.67722 -3.255249,-4.16672 -8.854278,-6.77092 -5.599028,-2.6042 -12.630367,-4.16672 -6.901128,-1.69273 -14.583516,-3.25525 -10.156377,-2.21357 -19.401285,-5.2084 -9.244908,-3.12503 -16.276246,-8.46364 -7.0313383,-5.46882 -11.1980573,-13.80226 -4.16671896,-8.33344 -4.16671896,-20.83359 0,-13.80226 4.81776876,-23.95864 4.8177685,-10.28659 13.0209965,-16.92729 8.333438,-6.77092 19.401285,-10.02617 11.198058,-3.38546 25.130524,-3.38546 13.932467,0 27.995143,2.73441 14.062675,2.73441 24.219055,7.03134 v 27.34409 q -13.54184,-5.33861 -26.041994,-7.68239 -12.369947,-2.47399 -23.307585,-2.47399 -15.755406,0 -24.349263,5.72924 -8.463648,5.72924 -8.463648,17.18772 0,6.6407 2.734409,10.93763 2.864619,4.29693 7.682388,7.16155 4.817769,2.73441 11.067847,4.42714 6.250079,1.69273 13.281417,3.12504 11.067847,2.34378 21.094015,5.46882 10.156377,2.99483 17.968974,8.46365 7.8126,5.46882 12.36995,14.32309 4.55735,8.72407 4.55735,22.39612 0,14.06267 -5.2084,24.34926 -5.2084,10.28659 -14.84394,17.05751 -9.505326,6.64071 -23.177372,9.89595 -13.672047,3.25525 -29.948293,3.25525 -14.192886,0 -27.995143,-2.86462 Q 9.1147257,390.81629 2.7939677e-5,385.7381 V 358.78463 Q 12.890815,364.38366 25.130552,366.98786 q 12.239737,2.47399 25.260733,2.47399 7.552178,0 14.843937,-1.17189 7.291758,-1.3021 13.020996,-4.29693 5.859449,-2.99483 9.375118,-8.07302 3.515669,-5.20839 3.515669,-12.76057 z m 110.366355,53.25587 q -13.67205,0 -24.60969,-2.73441 -10.93763,-2.60419 -19.27107,-7.55217 -8.33344,-5.07819 -14.19289,-12.23974 -5.85945,-7.29176 -9.37512,-16.40646 -2.86462,-7.29175 -4.16672,-16.14603 -1.17189,-8.85428 -1.17189,-19.79192 V 218.93913 h 31.90145 v 99.74083 q 0,18.48982 4.42714,28.90662 4.94797,11.58868 14.4533,16.79708 9.50533,5.07819 22.39612,5.07819 12.89078,0 22.39611,-5.07819 9.50533,-5.2084 14.45331,-16.79708 4.42714,-10.4168 4.42714,-28.90662 v -99.74083 h 31.90144 v 102.60545 q 0,10.93764 -1.3021,19.79192 -1.17189,8.85428 -4.03651,16.14603 -3.51567,9.1147 -9.50533,16.40646 -5.85945,7.16155 -14.4533,12.23974 -8.46365,4.94798 -19.5315,7.55217 -11.06785,2.73441 -24.73989,2.73441 z"
       id="path9" /><path
       style="font-size:266.67px;line-height:0.8;text-align:end"
       d="m 370.86481,242.63734 q -13.021,0 -24.08885,4.29693 -10.93763,4.29693 -18.88044,12.50016 -7.8126,8.20323 -12.23974,20.31275 -4.42714,11.97932 -4.42714,27.47431 0,15.36477 4.03651,27.08367 4.03651,11.58869 11.58869,19.40128 7.55218,7.8126 18.3596,11.84911 10.93764,3.9063 24.7399,3.9063 9.89596,0 20.18254,-1.56252 10.28659,-1.56252 19.27108,-4.55735 v 27.47431 q -9.1147,2.60419 -19.66171,4.0365 -10.547,1.56252 -21.87527,1.56252 -22.1357,0 -38.93278,-6.25007 -16.79709,-6.38029 -28.12535,-17.83877 -11.19806,-11.58869 -16.9273,-27.60451 -5.59903,-16.14604 -5.59903,-35.54732 0,-19.92213 5.98966,-36.97964 6.11987,-17.0575 17.44814,-29.55766 11.45847,-12.50015 28.51598,-19.6617 17.18771,-7.16155 38.80257,-7.29176 11.06785,0 20.9638,1.56252 9.89596,1.43231 17.83877,4.16672 v 27.08367 q -10.4168,-3.25525 -19.40129,-4.55735 -8.98448,-1.3021 -17.57834,-1.3021 z m 133.25714,0 q -13.021,0 -24.08884,4.29693 -10.93764,4.29693 -18.88045,12.50016 -7.8126,8.20323 -12.23974,20.31275 -4.42714,11.97932 -4.42714,27.47431 0,15.36477 4.03651,27.08367 4.03651,11.58869 11.58869,19.40128 7.55218,7.8126 18.35961,11.84911 10.93763,3.9063 24.73989,3.9063 9.89596,0 20.18254,-1.56252 10.28659,-1.56252 19.27108,-4.55735 v 27.47431 q -9.1147,2.60419 -19.66171,4.0365 -10.547,1.56252 -21.87527,1.56252 -22.13569,0 -38.93278,-6.25007 -16.79709,-6.38029 -28.12535,-17.83877 -11.19806,-11.58869 -16.9273,-27.60451 -5.59903,-16.14604 -5.59903,-35.54732 0,-19.92213 5.98966,-36.97964 6.11987,-17.0575 17.44814,-29.55766 11.45847,-12.50015 28.51598,-19.6617 17.18771,-7.16155 38.80257,-7.29176 11.06785,0 20.9638,1.56252 9.89596,1.43231 17.83877,4.16672 v 27.08367 q -10.4168,-3.25525 -19.40129,-4.55735 -8.98448,-1.3021 -17.57834,-1.3021 z m 82.99608,123.82968 h 85.67816 v 26.69304 H 555.21659 V 218.93913 h 112.89204 v 26.69304 h -80.9906 v 45.05265 h 69.53212 v 26.69304 h -69.53212 z m 185.21092,-23.30758 q 0,-6.64071 -3.25525,-10.67722 -3.25525,-4.16672 -8.85428,-6.77092 -5.59902,-2.6042 -12.63036,-4.16672 -6.90113,-1.69273 -14.58352,-3.25525 -10.15638,-2.21357 -19.40128,-5.2084 -9.24491,-3.12503 -16.27625,-8.46364 -7.03134,-5.46882 -11.19806,-13.80226 -4.16672,-8.33344 -4.16672,-20.83359 0,-13.80226 4.81777,-23.95864 4.81777,-10.28659 13.021,-16.92729 8.33344,-6.77092 19.40128,-10.02617 11.19806,-3.38546 25.13053,-3.38546 13.93246,0 27.99514,2.73441 14.06268,2.73441 24.21905,7.03134 v 27.34409 q -13.54183,-5.33861 -26.04199,-7.68239 -12.36995,-2.47399 -23.30758,-2.47399 -15.75541,0 -24.34927,5.72924 -8.46364,5.72924 -8.46364,17.18772 0,6.6407 2.7344,10.93763 2.86462,4.29693 7.68239,7.16155 4.81777,2.73441 11.06785,4.42714 6.25008,1.69273 13.28142,3.12504 11.06784,2.34378 21.09401,5.46882 10.15638,2.99483 17.96898,8.46365 7.8126,5.46882 12.36994,14.32309 4.55735,8.72407 4.55735,22.39612 0,14.06267 -5.2084,24.34926 -5.20839,10.28659 -14.84393,17.05751 -9.50533,6.64071 -23.17738,9.89595 -13.67204,3.25525 -29.94829,3.25525 -14.19289,0 -27.99514,-2.86462 -13.67205,-2.7344 -22.78675,-7.81259 v -26.95347 q 12.89079,5.59903 25.13053,8.20323 12.23973,2.47399 25.26073,2.47399 7.55218,0 14.84394,-1.17189 7.29176,-1.3021 13.02099,-4.29693 5.85945,-2.99483 9.37512,-8.07302 3.51567,-5.20839 3.51567,-12.76057 z m 133.90814,0 q 0,-6.64071 -3.25525,-10.67722 -3.25525,-4.16672 -8.85427,-6.77092 -5.59903,-2.6042 -12.63037,-4.16672 -6.90113,-1.69273 -14.58352,-3.25525 -10.15637,-2.21357 -19.40128,-5.2084 -9.24491,-3.12503 -16.27625,-8.46364 -7.03134,-5.46882 -11.19806,-13.80226 -4.16671,-8.33344 -4.16671,-20.83359 0,-13.80226 4.81776,-23.95864 4.81777,-10.28659 13.021,-16.92729 8.33344,-6.77092 19.40129,-10.02617 11.19805,-3.38546 25.13052,-3.38546 13.93247,0 27.99514,2.73441 14.06268,2.73441 24.21906,7.03134 v 27.34409 q -13.54184,-5.33861 -26.042,-7.68239 -12.36994,-2.47399 -23.30758,-2.47399 -15.75541,0 -24.34926,5.72924 -8.46365,5.72924 -8.46365,17.18772 0,6.6407 2.73441,10.93763 2.86462,4.29693 7.68238,7.16155 4.81777,2.73441 11.06785,4.42714 6.25008,1.69273 13.28142,3.12504 11.06785,2.34378 21.09401,5.46882 10.15638,2.99483 17.96898,8.46365 7.8126,5.46882 12.36995,14.32309 4.55734,8.72407 4.55734,22.39612 0,14.06267 -5.20839,24.34926 -5.2084,10.28659 -14.84394,17.05751 -9.50533,6.64071 -23.17737,9.89595 -13.67205,3.25525 -29.9483,3.25525 -14.19288,0 -27.99514,-2.86462 -13.67205,-2.7344 -22.78674,-7.81259 v -26.95347 q 12.89078,5.59903 25.13052,8.20323 12.23974,2.47399 25.26073,2.47399 7.55218,0 14.84394,-1.17189 7.29176,-1.3021 13.021,-4.29693 5.85944,-2.99483 9.37511,-8.07302 3.51567,-5.20839 3.51567,-12.76057 z"
       id="path10" /><path
       style="font-size:266.67px;line-height:0.8;text-align:end;letter-spacing:-25.01px"
       d="m 421.90095,478.62753 q 0,11.32826 -5.07819,20.83359 -5.07819,9.37512 -16.79708,15.6252 v 0.52084 q 6.51049,2.21357 11.8491,5.72923 5.46882,3.38546 9.24491,8.20323 3.9063,4.68756 5.98966,10.67722 2.21357,5.98966 2.21357,13.41163 0,6.38028 -2.08336,13.67204 -1.95315,7.29176 -7.03134,14.19289 -5.07819,6.77092 -13.54184,12.50016 -8.46364,5.72924 -21.35443,9.11469 -3.25525,0.78126 -7.16155,1.43231 -3.77609,0.65105 -8.46365,1.17189 -4.68756,0.39063 -10.41679,0.65105 -5.72924,0.13021 -12.89079,0.13021 H 295.72749 V 432.27278 h 60.54764 q 19.40128,0 31.25039,3.9063 8.85428,2.86462 15.36478,7.55217 6.51049,4.55735 10.67721,10.28659 4.29693,5.59903 6.25008,11.97932 2.08336,6.25008 2.08336,12.63037 z m -94.27202,52.08398 v 49.08916 h 20.8336 q 8.33344,0 14.3231,-0.39063 5.98965,-0.52084 10.28658,-1.56252 6.64071,-1.43231 11.06785,-3.77609 4.42714,-2.47399 7.16155,-5.46882 2.73441,-3.12504 3.9063,-6.77092 1.17189,-3.77608 1.17189,-7.9428 0,-7.29176 -4.03651,-12.76058 -4.03651,-5.46882 -12.63037,-8.20323 -3.77609,-1.17189 -8.85428,-1.69273 -5.07819,-0.52084 -13.02099,-0.52084 z m 28.77641,-26.69304 q 13.02099,0 19.40128,-2.6042 7.16155,-2.99483 10.15638,-8.20323 3.12504,-5.33861 3.12504,-11.97932 0,-6.90112 -3.51567,-12.23973 -3.51567,-5.46882 -11.97932,-8.07302 -3.51567,-1.04168 -8.20323,-1.43231 -4.68755,-0.52084 -11.58868,-0.52084 h -26.17221 v 45.05265 z m 112.36152,-71.74569 v 147.52789 h 81.51144 v 26.69304 H 436.86542 V 432.27278 Z"
       id="path11" /><path
       style="font-size:266.67px;line-height:0.8;text-align:end"
       d="m 587.11804,579.80067 h 85.67816 v 26.69304 H 555.2166 V 432.27278 h 112.89204 v 26.69304 h -80.9906 v 45.05265 h 69.53212 v 26.69304 h -69.53212 z m 185.21089,-23.30758 q 0,-6.64071 -3.25525,-10.67722 -3.25525,-4.16672 -8.85428,-6.77092 -5.59903,-2.6042 -12.63036,-4.16672 -6.90113,-1.69273 -14.58352,-3.25525 -10.15638,-2.21357 -19.40129,-5.2084 -9.2449,-3.12504 -16.27624,-8.46364 -7.03134,-5.46882 -11.19806,-13.80226 -4.16672,-8.33344 -4.16672,-20.8336 0,-13.80225 4.81777,-23.95863 4.81777,-10.28659 13.021,-16.9273 8.33344,-6.77091 19.40128,-10.02616 11.19806,-3.38546 25.13053,-3.38546 13.93246,0 27.99514,2.73441 14.06268,2.73441 24.21905,7.03134 v 27.34409 q -13.54183,-5.33861 -26.04199,-7.68239 -12.36995,-2.47399 -23.30758,-2.47399 -15.75541,0 -24.34927,5.72924 -8.46365,5.72924 -8.46365,17.18772 0,6.6407 2.73441,10.93763 2.86462,4.29693 7.68239,7.16155 4.81777,2.73441 11.06785,4.42714 6.25008,1.69273 13.28142,3.12504 11.06784,2.34378 21.09401,5.46882 10.15638,2.99483 17.96898,8.46365 7.81259,5.46881 12.36994,14.32309 4.55735,8.72407 4.55735,22.39612 0,14.06267 -5.2084,24.34926 -5.2084,10.28659 -14.84393,17.05751 -9.50533,6.6407 -23.17738,9.89595 -13.67204,3.25525 -29.94829,3.25525 -14.19289,0 -27.99514,-2.86462 -13.67205,-2.73441 -22.78675,-7.81259 v -26.95347 q 12.89079,5.59903 25.13053,8.20323 12.23973,2.47399 25.26073,2.47399 7.55218,0 14.84394,-1.17189 7.29175,-1.3021 13.02099,-4.29693 5.85945,-2.99483 9.37512,-8.07302 3.51567,-5.2084 3.51567,-12.76057 z m 133.9082,0 q 0,-6.64071 -3.25525,-10.67722 -3.25525,-4.16672 -8.85427,-6.77092 -5.59903,-2.6042 -12.63037,-4.16672 -6.90113,-1.69273 -14.58352,-3.25525 -10.15638,-2.21357 -19.40128,-5.2084 -9.24491,-3.12504 -16.27625,-8.46364 -7.03134,-5.46882 -11.19806,-13.80226 -4.16671,-8.33344 -4.16671,-20.8336 0,-13.80225 4.81776,-23.95863 4.81777,-10.28659 13.021,-16.9273 8.33344,-6.77091 19.40129,-10.02616 11.19805,-3.38546 25.13052,-3.38546 13.93247,0 27.99514,2.73441 14.06268,2.73441 24.21906,7.03134 v 27.34409 q -13.54184,-5.33861 -26.042,-7.68239 -12.36994,-2.47399 -23.30758,-2.47399 -15.75541,0 -24.34927,5.72924 -8.46364,5.72924 -8.46364,17.18772 0,6.6407 2.73441,10.93763 2.86462,4.29693 7.68238,7.16155 4.81777,2.73441 11.06785,4.42714 6.25008,1.69273 13.28142,3.12504 11.06785,2.34378 21.09401,5.46882 10.15638,2.99483 17.96898,8.46365 7.8126,5.46881 12.36995,14.32309 4.55734,8.72407 4.55734,22.39612 0,14.06267 -5.20839,24.34926 -5.2084,10.28659 -14.84394,17.05751 -9.50533,6.6407 -23.17737,9.89595 -13.67205,3.25525 -29.9483,3.25525 -14.19288,0 -27.99514,-2.86462 -13.67205,-2.73441 -22.78674,-7.81259 v -26.95347 q 12.89078,5.59903 25.13052,8.20323 12.23974,2.47399 25.26073,2.47399 7.55218,0 14.84394,-1.17189 7.29176,-1.3021 13.021,-4.29693 5.85944,-2.99483 9.37511,-8.07302 3.51567,-5.2084 3.51567,-12.76057 z"
       id="path12" /></g><metadata
     id="metadata7"><rdf:RDF><cc:Work
         rdf:about="" /></rdf:RDF></metadata></svg>
