<?xml version="1.0" encoding="UTF-8" standalone="no"?>
<svg
   version="1.1"
   id="Layer_1"
   x="0px"
   y="0px"
   width="1516.2776"
   viewBox="0 0 1516.2776 609.75061"
   enable-background="new 0 0 1024 1024"
   xml:space="preserve"
   sodipodi:docname="_aecab1f6-9059-4bca-8604-962b0d8b5cca (1).svg"
   height="609.75061"
   inkscape:export-filename="SuccessBlessIconAndString.svg"
   inkscape:export-xdpi="96"
   inkscape:export-ydpi="96"
   xmlns:inkscape="http://www.inkscape.org/namespaces/inkscape"
   xmlns:sodipodi="http://sodipodi.sourceforge.net/DTD/sodipodi-0.dtd"
   xmlns="http://www.w3.org/2000/svg"
   xmlns:svg="http://www.w3.org/2000/svg"><defs
   id="defs19" /><sodipodi:namedview
   id="namedview19"
   pagecolor="#ffffff"
   bordercolor="#000000"
   borderopacity="0.25"
   inkscape:showpageshadow="2"
   inkscape:pageopacity="0.0"
   inkscape:pagecheckerboard="0"
   inkscape:deskcolor="#d1d1d1"
   inkscape:export-bgcolor="#ffffff00" />
<path
   fill="#000000"
   opacity="1"
   stroke="none"
   d="m 1151.8283,375.13922 c -9.7178,-1.55304 -19.1363,-2.60983 -28.4572,-4.22842 -43.9231,-7.62757 -86.5371,-19.09638 -124.43142,-43.81937 -18.99566,-12.39319 -33.37058,-28.52136 -39.61988,-50.87778 -3.29646,-11.79287 -2.67431,-23.71676 -0.97545,-35.67575 8.07186,-56.82104 35.13124,-104.05704 73.00735,-146.050725 37.9077,-42.02867 84.4009,-69.81177 138.6236,-85.0954295 30.3019,-8.54118003 61.2172,-11.46975 92.4647,-7.90567 66.6264,7.59944 123.6291,35.2851895 170.6508,83.2871695 27.9287,28.510935 50.3412,60.734445 66.0295,97.511175 9.6819,22.69638 15.9113,46.37888 17.0645,70.99091 1.2866,27.46435 -10.8796,49.3052 -31.7982,66.34149 -23.5397,19.17087 -51.069,30.38199 -79.8815,38.8898 -26.2611,7.75452 -52.9992,12.96506 -80.2648,15.41782 -3.3635,0.30261 -4.6891,1.77633 -4.6832,5.05838 0.042,23.16644 0.046,46.33313 -0.019,69.49945 -0.01,3.01819 1.2306,4.18127 4.1711,4.15149 12.3319,-0.12482 24.6653,-0.25421 36.9968,-0.17298 3.4864,0.023 4.8773,-2.13336 6.5052,-4.54071 10.0716,-14.8927 28.3374,-20.01709 44.0166,-12.43335 12.4777,6.03522 20.699,20.45923 19.1056,33.52008 -1.7789,14.58155 -12.2815,26.68006 -25.8648,29.79517 -15.1596,3.47662 -29.2638,-1.87341 -37.0743,-15.0296 -2.8318,-4.77014 -5.9004,-6.16516 -11.1358,-5.95917 -10.4841,0.41254 -20.9971,0.2666 -31.4939,0.0903 -3.8722,-0.0649 -5.375,1.21161 -5.259,5.17798 0.224,7.6601 0.2197,15.33569 0,22.99622 -0.1053,3.73736 0.8897,5.12085 4.9628,5.41363 27.1373,1.95081 46.5663,15.51654 58.1987,40.0141 4.1359,8.70978 5.3935,18.17121 4.8101,27.77185 -0.2454,4.0409 1.2531,5.20734 5.1441,5.12372 9.8286,-0.2113 19.6661,-0.15112 29.4977,-0.0219 4.9818,0.0654 9.1859,2.02673 11.4184,6.7232 2.1527,4.52906 1.6908,9.03467 -1.0621,13.29096 -2.2373,3.45923 -5.5909,4.54089 -9.4461,4.56103 -9.4997,0.0498 -18.9996,0.0904 -28.4995,0.0902 -112.8329,-0.003 -225.6657,-0.0129 -338.4986,-0.0225 -1.4999,-1.2e-4 -3.0002,0.002 -4.4998,-0.0274 -7.6103,-0.14789 -12.326,-4.63965 -12.526,-11.91852 -0.1868,-6.80176 4.9447,-12.43188 12.1303,-12.63434 9.6594,-0.27215 19.3311,-0.1048 28.9976,-0.13391 6.5681,-0.0198 7.1647,-0.2124 6.6374,-6.72693 -2.5045,-30.93707 23.0905,-57.96826 48.6119,-64.04809 4.3505,-1.03638 8.8445,-1.61457 13.307,-1.98615 3.0644,-0.25519 4.5526,-1.27624 4.5122,-4.50854 -0.1044,-8.33173 -0.1,-16.66584 -0.033,-24.99823 0.024,-2.96704 -1.1878,-4.14344 -4.1861,-4.1153 -12.1657,0.11432 -24.3334,0.16687 -36.4987,0.0522 -3.3158,-0.0312 -4.519,1.98236 -5.9726,4.35394 -7.6597,12.49792 -18.9489,18.78296 -33.522,17.39508 -14.0037,-1.33368 -24.1803,-9.19714 -28.5421,-22.52344 -8.1953,-25.03857 11.555,-44.84423 30.8374,-44.99597 13.5718,-0.10675 23.7948,5.21997 31.1256,16.40821 1.5549,2.37298 3.1605,3.9768 6.3305,3.94451 11.8314,-0.12066 23.6657,-0.0665 35.4976,0.0538 3.5465,0.036 5.1004,-1.22632 5.0761,-4.95685 -0.1489,-22.83228 -0.1499,-45.66541 -0.2133,-68.49826 0,-1.32236 0.049,-2.68701 -1.2768,-4.01868 m 26.6788,-23.99478 c 0,51.48047 0.055,102.96112 -0.094,154.44116 -0.013,4.61377 1.3684,6.06995 5.9418,5.96552 11.4894,-0.26245 22.9908,-0.19312 34.4836,-0.0156 3.9048,0.0604 5.3108,-1.3277 5.2184,-5.23169 -0.2088,-8.82513 -0.2226,-17.66076 -0.049,-26.48687 0.1146,-5.84235 2.1213,-10.88672 8.0826,-13.17145 8.7164,-3.34064 17.0844,2.70459 17.3606,12.70666 0.2483,8.98987 0.2433,17.99646 -0.01,26.9859 -0.1118,4.03583 1.3948,5.20362 5.2256,5.14563 11.4919,-0.17376 22.9924,-0.25586 34.4806,0.0111 4.7826,0.11115 5.823,-1.80987 5.8165,-6.20453 -0.1063,-71.97235 -0.1322,-143.94507 0.054,-215.91711 0.013,-5.11572 -1.9646,-7.1254 -6.4491,-8.22379 -10.0371,-2.45834 -20.1768,-4.21881 -30.4294,-5.49292 -8.6561,-1.07571 -8.657,-1.24856 -8.6567,7.51984 0,51.81345 0.017,103.62692 0.021,155.44034 2e-4,1.83154 0.1028,3.68292 -0.1191,5.49109 -0.8576,6.98889 -6.3216,11.80462 -13.2517,11.81097 -6.1881,0.006 -10.9253,-4.3349 -11.9638,-11.20581 -0.346,-2.28925 -0.2901,-4.65088 -0.2888,-6.97937 0.028,-51.48004 0.081,-102.96008 0.1098,-154.44012 0,-7.33899 -1.3448,-8.91642 -7.7695,-8.1771 -10.5712,1.21646 -21.084,2.7562 -31.4399,5.42319 -4.6886,1.20749 -6.4454,3.10846 -6.3757,8.1301 0.2843,20.48809 0.1055,40.98263 0.098,62.47482 m -75.9165,-226.53458 c -20.0744,12.71251 -41.3038,14.85756 -63.5691,6.78353 -2.7907,-1.01199 -4.6927,-1.30341 -6.8362,1.45346 -19.8735,25.56036 -34.28747,53.87814 -43.26315,84.96027 -0.60928,2.10995 -1.97708,4.29199 -0.91009,6.70059 1.8746,0.63101 3.32321,-0.42673 4.78943,-1.0466 23.55521,-9.95874 48.13521,-16.39279 73.06681,-21.79544 29.9658,-6.49353 60.3289,-10.12769 90.7673,-13.19754 20.7076,-2.08851 41.5196,-2.77457 62.3298,-3.06922 3.6173,-0.0512 5.0977,-1.29117 5.0142,-4.98675 -0.173,-7.66153 -0.2245,-15.33438 0.01,-22.99268 0.1084,-3.61993 -1.0559,-5.4108 -4.6843,-6.23538 -8.562,-1.94583 -16.2097,-5.87665 -23.1851,-11.25552 -28.8769,-22.26775 -30.7232,-63.486035 -3.9835,-88.265235 7.7623,-7.19329 16.6771,-12.01325 26.8883,-14.66756 4.5063,-1.17137 5.9054,-4.10995 4.7315,-9.26442 -0.9991,-4.3869 -4.3173,-2.6142 -6.8566,-2.24889 -7.2397,1.04155 -14.4754,2.15001 -21.6671,3.47912 -21.2296,3.92352 -41.6119,10.43495 -60.9505,20.13482 -3.5498,1.7805 -5.2469,3.60539 -4.0741,8.11604 2.1507,8.27208 2.317,16.87771 0.782,25.2793 -3.2547,17.814215 -13.2663,31.311955 -28.3944,42.118105 m 155.3204,25.42513 c -9.0887,2.89194 -8.4432,0.69208 -8.4507,11.40515 0,6.32993 0.1944,12.66458 0,18.98807 -0.1094,3.62158 1.0776,4.97528 4.8371,5.00491 13.6482,0.10743 27.272,0.90897 40.9009,1.71301 28.4061,1.67573 56.6809,4.60853 84.7209,9.30942 34.8226,5.83795 69.3207,13.13492 101.8367,27.62021 1.0683,0.47592 2.3122,1.55707 3.818,0.22043 -0.2254,-1.3877 -0.3387,-2.87857 -0.7173,-4.29871 -8.5307,-31.99929 -23.4448,-60.7529 -43.9213,-86.72247 -2.3461,-2.97552 -4.5193,-2.91693 -7.7067,-1.78342 -20.9529,7.45133 -41.3626,6.41913 -60.4455,-5.45291 -24.9658,-15.53195 -35.588,-39.568365 -31.1688,-66.687315 1.3931,-8.54894 1.7539,-8.49387 -6.1964,-12.33771 -0.8985,-0.43445 -1.8357,-0.78845 -2.7436,-1.20436 -24.1341,-11.05498 -49.5066,-17.41284 -75.8479,-20.25655 -6.9423,-0.74948 -7.5113,-0.44046 -7.3,6.45641 0.076,2.48428 0.6146,4.04353 3.4254,4.51542 2.4363,0.40903 4.7854,1.3935 7.1417,2.21376 27.7214,9.65038 44.9379,39.26322 38.2111,67.601435 -5.0864,21.42813 -18.9327,35.82162 -40.3969,43.69522 m -79.4345,424.05936 c 0,1.33288 0.1837,2.69226 -0.015,3.99395 -0.8003,5.23536 1.5953,6.35852 6.4996,6.33069 34.6527,-0.19671 69.3073,-0.17724 103.9604,-0.0221 4.547,0.0203 6.1725,-1.28443 6.0597,-5.95246 -0.2777,-11.48907 -0.082,-22.98944 -0.094,-34.48523 -0.01,-7.29321 -0.7441,-7.93511 -7.8717,-7.86456 -19.2904,0.19098 -38.5813,0.3891 -57.8724,0.42749 -14.8235,0.0295 -29.6488,-0.10119 -44.4707,-0.32843 -4.6386,-0.071 -6.441,1.55561 -6.2807,6.42896 0.3338,10.15173 0.09,20.32245 0.085,31.47168 m 94.4728,-473.27266 c 0.7354,-3.430835 1.2254,-6.847125 0.6207,-10.388835 -3.9732,-23.27638 -27.5778,-37.10598 -49.856,-29.16406 -17.0443,6.07611 -27.3801,23.45189 -23.5991,39.673035 3.7769,16.20363 17.8062,27.02312 35.832,27.63378 17.4392,0.59076 31.7871,-9.88515 37.0024,-27.75392 m 46.6043,461.32283 c 0.01,5.99804 0.06,11.99658 0,17.99389 -0.026,2.50403 0.4923,4.19397 3.5204,4.17896 11.9956,-0.0594 23.9919,-0.0362 35.9878,-0.008 2.4302,0.006 3.5208,-1.02435 3.8319,-3.51776 2.652,-21.25165 -17.6922,-44.25079 -39.041,-44.1759 -3.3574,0.0118 -4.3511,1.45093 -4.3047,4.53589 0.1001,6.66284 0.016,13.32843 0.01,20.99292 m -206.1371,22.013 c 11.6539,0.052 23.3098,0.002 34.9608,0.2149 3.7718,0.069 4.9133,-1.42914 4.8738,-5.01953 -0.1373,-12.48681 -0.1621,-24.97748 0,-37.46356 0.057,-4.28467 -1.6682,-5.66864 -5.7242,-5.07196 -15.3375,2.25635 -26.527,10.25714 -32.9772,24.34137 -3.2931,7.19055 -4.412,14.84942 -1.1364,22.99878 m 336.6286,-298.0993 c -30.353,3.75507 -60.7097,7.47852 -91.1444,10.65329 16.0425,1.36258 32.074,2.42942 48.096,3.62418 14.2516,1.06274 28.5285,1.94781 42.7238,3.53928 7.4913,0.8399 14.1114,0.59857 19.7919,-5.12433 4.948,-4.9849 10.6007,-9.31766 14.4419,-16.50672 -11.6076,1.32148 -22.3064,2.53949 -33.9092,3.8143 m -397.4433,15.26737 c 18.9662,-1.40872 37.9323,-2.81742 56.8984,-4.22611 -19.8725,-3.05459 -39.6774,-5.31463 -59.4776,-7.61551 -19.8905,-2.3114 -39.7763,-4.66345 -60.6657,-7.11526 6.31793,9.78354 14.1274,16.31522 23.1588,21.45529 1.3025,0.74124 3.261,0.59631 4.8839,0.46512 11.429,-0.92358 22.8496,-1.95099 35.2022,-2.96353 m 240.2777,-50.58252 c -1.0836,1.60437 -2.8087,2.87338 -2.7406,5.21716 5.1036,2.85047 9.6855,2.65839 14.7179,-0.80047 16.4419,-11.30091 33.2198,-22.10218 50.3623,-32.3256 2.044,-1.21896 3.9169,-2.72479 6.86,-4.79458 -12.6703,-2.08957 -24.0561,-3.06427 -35.4279,-4.20459 -3.7887,-0.37992 -6.1886,1.00149 -8.4077,3.94308 -8.2077,10.88004 -16.6058,21.61658 -25.364,32.965 M 1155.101,218.28381 c -2.3069,-3.72665 -5.2539,-5.45312 -9.953,-4.53982 -4.7005,0.9136 -9.6249,0.63089 -14.3617,1.41382 -6.0736,1.00384 -12.3721,0.9461 -19.0696,3.20239 1.7695,1.27963 2.7608,2.11801 3.8608,2.77389 18.2891,10.90363 36.2165,22.38105 53.5753,34.70179 4.7811,3.39343 8.763,2.8125 13.8167,-0.24924 -8.3948,-12.99881 -18.4337,-24.49811 -27.8685,-37.30283 m 272.5447,48.04627 c 21.0947,-2.73636 42.1893,-5.47275 63.284,-8.20914 -7.8287,-6.48941 -16.3101,-10.54068 -25.168,-13.93362 -2.1949,-0.84073 -3.9716,-0.84147 -6.1696,-0.11698 -15.3307,5.0531 -30.7172,9.93674 -46.0758,14.90567 -14.1012,4.5622 -28.1899,9.16321 -42.2841,13.74713 0.06,0.20594 0.1198,0.4119 0.1797,0.61783 18.4469,-2.32181 36.8938,-4.64358 56.2338,-7.01089 m -240.9308,-46.64594 c 6.4071,8.51428 13.1279,16.81571 19.1018,25.62375 3.5012,5.16235 7.2747,6.8223 13.3658,5.49536 3.7981,-0.82733 4.9108,-2.26925 4.8437,-5.89447 -0.1847,-9.99042 -0.2571,-19.98935 -0.042,-29.97775 0.092,-4.27225 -1.6708,-5.487 -5.6203,-5.37924 -10.4883,0.28613 -20.9834,0.31607 -31.4747,0.50735 -1.9291,0.0352 -3.9687,-0.0298 -5.5787,1.59897 0.9689,3.0202 3.3191,5.01276 5.404,8.02603 m 62.8268,27.85633 c 2.4516,4.41207 12.0203,5.3226 15.0983,1.2236 8.1758,-10.88776 16.1973,-21.89163 24.2302,-32.88581 0.8405,-1.15054 1.8887,-2.39108 1.1624,-4.20974 -2.4583,-1.44309 -5.2754,-1.56183 -8.0749,-1.62152 -8.6344,-0.18406 -17.2696,-0.33689 -25.9053,-0.44727 -5.7443,-0.0735 -6.4977,0.6611 -6.5316,6.6644 -0.057,10.13132 -0.012,20.26321 0.021,31.27634 m -215.1371,17.09179 c 20.0706,2.58716 40.1412,5.17432 60.2118,7.76148 -21.905,-8.40131 -43.9978,-15.64087 -66.0945,-22.86896 -21.4387,-7.01288 -21.454,-7.03235 -41.33651,3.88577 -1.76434,0.96887 -4.22128,1.32355 -4.94592,4.55069 17.18362,2.18793 34.23043,4.35846 52.16513,6.67102 M 1366.2589,72.143825 c 0.2838,29.039505 34.7417,46.060015 55.1756,36.623375 -16.3645,-17.091255 -34.4929,-31.507545 -53.8421,-44.984125 -1.5403,3.14099 -1.2298,5.33252 -1.3335,8.36075 m -305.8694,28.172855 c -2.6635,2.87196 -5.327,5.74393 -7.9466,8.56869 10.0693,6.09583 29.1075,2.31958 40.6627,-8.23333 11.0946,-10.132165 16.3595,-25.666895 11.6243,-35.136545 -16.069,9.62659 -30.1609,21.6958 -44.3404,34.801185 m 41.4365,140.2894 c -4.7839,-3.00443 -9.9003,-5.59375 -14.2808,-9.10193 -8.4316,-6.75247 -17.3027,-8.0712 -27.2248,-4.0405 -3.841,1.56031 -8.2915,1.4343 -12.7698,4.27832 26.4905,8.35694 51.8432,17.27756 78.09,23.69452 -7.7266,-4.82278 -15.4534,-9.6456 -23.8146,-14.83041 m 309.5079,-4.43326 c 4.3287,-1.68326 9.0884,-2.2482 13.828,-5.00522 -8.6547,-2.77719 -16.7471,-4.53494 -24.8518,-6.24597 -2.1372,-0.4512 -3.8502,0.50098 -5.596,1.54553 -15.2504,9.12467 -30.5272,18.20514 -45.7603,27.35855 -0.8152,0.4899 -2.2403,0.6991 -2.0635,2.61869 21.5887,-5.86753 42.4451,-13.56272 64.4436,-20.27158 m -83.6165,96.69009 c -2.384,-0.52896 -4.6227,-1.84249 -7.8189,-1.36743 -0.4928,5.39618 -0.6103,10.77057 0.3176,16.17438 0.4273,2.48853 1.9773,2.59964 4.0606,2.31241 7.2435,-0.99857 14.5488,-1.61493 21.746,-2.86353 5.8255,-1.01062 11.9195,-0.94867 18.3128,-3.53537 -12.5552,-3.7088 -24.1892,-7.14553 -36.6181,-10.72046 m -176.9377,-1.78726 c -13.9616,4.05136 -27.9232,8.10273 -41.8848,12.15412 13.4954,3.48352 26.995,4.88693 40.487,6.33175 1.3366,0.14313 3.1861,-0.0313 3.2626,-1.56769 0.2801,-5.62979 2.0219,-11.40487 -1.8648,-16.91818 m 251.6733,142.4408 c 3.9279,-4.69068 4.5369,-8.70301 1.9019,-12.52899 -2.5165,-3.65381 -7.8583,-5.31458 -11.9568,-3.71735 -3.9295,1.53137 -6.4337,6.08539 -5.7844,10.51874 0.9677,6.60699 7.8816,9.41711 15.8393,5.7276 m -316.0685,-7.22418 c -0.3342,-1.27869 -0.4463,-2.67322 -1.0424,-3.81513 -2.1257,-4.07141 -5.524,-6.07532 -10.1775,-5.58648 -4.5922,0.48242 -7.0471,3.41723 -8.0958,7.61291 -1.0986,4.39551 1.3289,7.30896 4.6758,9.53882 5.8314,3.88531 12.0751,0.84125 14.6399,-7.75012 m 291.0752,-146.26813 c -4.2873,-0.32056 -8.5746,-0.64112 -12.8618,-0.96167 12.8054,3.68582 25.7974,6.55408 38.3934,10.64267 8.6103,2.79486 14.7909,-1.61801 21.7996,-4.03391 -0.029,-0.42401 -0.057,-0.84805 -0.086,-1.27206 -15.4426,-1.44342 -30.8852,-2.88684 -47.2454,-4.37503 m -305.8142,9.31186 c 12.1642,-3.29715 24.3285,-6.5943 36.4927,-9.89145 -20.59,2.29669 -41.305,2.97803 -63.3033,5.01382 4.6327,1.5929 7.9134,2.75479 11.2166,3.84867 4.8386,1.60223 9.6166,4.05075 15.594,1.02896 z"
   id="path1" />















<path
   fill="#000000"
   opacity="1"
   stroke="none"
   d="m 1468.4252,597.53036 c -1.7163,7.85236 -5.5928,11.59363 -12.2039,12.17517 -5.092,0.448 -9.9839,-2.47955 -12.0189,-7.19262 -2.8959,-6.70697 0.2268,-14.26837 6.9511,-16.8313 7.1323,-2.71845 14.4429,0.7738 16.6919,8.02441 0.3392,1.09375 0.4035,2.27289 0.5798,3.82434 z"
   id="path17" />
<path
   fill="#000000"
   opacity="1"
   stroke="none"
   d="m 1026.0712,606.60934 c -7.0275,4.18427 -13.8456,3.4317 -17.7385,-1.68103 -3.8405,-5.04376 -3.2374,-12.67651 1.3292,-16.82361 4.9341,-4.48065 13.0755,-4.24005 17.6254,0.52106 4.8172,5.04077 4.4592,11.92481 -1.2161,17.98358 z"
   id="path18" />

<text
   xml:space="preserve"
   style="font-size:29.3333px;line-height:0;font-family:Meiryo;-inkscape-font-specification:Meiryo;letter-spacing:-20px;word-spacing:0px;fill:#ff5555;stroke-width:3.77953;stroke-linecap:round"
   x="933.62115"
   y="393.1618"
   id="text19"><tspan
     style="font-style:normal;font-variant:normal;font-weight:bold;font-stretch:normal;font-size:266.667px;line-height:0.8;font-family:Corbel;-inkscape-font-specification:'Corbel, Bold';font-variant-ligatures:normal;font-variant-caps:normal;font-variant-numeric:normal;font-variant-east-asian:normal;text-align:end;letter-spacing:-20px;word-spacing:0px;direction:ltr;text-anchor:end;fill:#333333"
     sodipodi:role="line"
     x="933.62115"
     y="393.1618"
     id="tspan32"><tspan
   style="font-style:normal;font-variant:normal;font-weight:bold;font-stretch:normal;font-size:266.667px;font-family:Corbel;-inkscape-font-specification:'Corbel, Bold';font-variant-ligatures:normal;font-variant-caps:normal;font-variant-numeric:normal;font-variant-east-asian:normal;text-align:end;letter-spacing:-30px;word-spacing:0px;text-anchor:end"
   id="tspan28">SU</tspan>CCESS</tspan><tspan
     sodipodi:role="line"
     x="933.62115"
     y="606.49542"
     style="font-style:normal;font-variant:normal;font-weight:bold;font-stretch:normal;font-size:266.667px;line-height:0.8;font-family:Corbel;-inkscape-font-specification:'Corbel, Bold';font-variant-ligatures:normal;font-variant-caps:normal;font-variant-numeric:normal;font-variant-east-asian:normal;text-align:end;letter-spacing:-20px;word-spacing:0px;direction:ltr;text-anchor:end;fill:#333333"
     id="tspan20"><tspan
   style="font-style:normal;font-variant:normal;font-weight:bold;font-stretch:normal;font-size:266.667px;font-family:Corbel;-inkscape-font-specification:'Corbel, Bold';font-variant-ligatures:normal;font-variant-caps:normal;font-variant-numeric:normal;font-variant-east-asian:normal;letter-spacing:-25.01px"
   id="tspan31">BL</tspan>ESS</tspan><tspan
     sodipodi:role="line"
     x="933.62115"
     y="659.27411"
     style="font-style:normal;font-variant:normal;font-weight:bold;font-stretch:normal;font-size:333.333px;line-height:0.8;font-family:Corbel;-inkscape-font-specification:'Corbel, Bold';font-variant-ligatures:normal;font-variant-caps:normal;font-variant-numeric:normal;font-variant-east-asian:normal;text-align:end;letter-spacing:-20px;word-spacing:0px;direction:ltr;text-anchor:end;fill:#333333"
     id="tspan33" /></text></svg>
